<svg width="1024" height="1024" xmlns="http://www.w3.org/2000/svg" class="icon">
 <defs>
  <style type="text/css"/>
 </defs>
 <g>
  <title>background</title>
  <rect fill="none" id="canvas_background" height="402" width="582" y="-1" x="-1"/>
 </g>
 <g>
  <title>Layer 1</title>
  <path id="svg_1" fill="#dd6572" d="m833.92,62.08l-645.76,0c-40.96,0 -74.24,33.28 -74.24,74.24l0,142.08l96,0c15.36,3.84 24.32,19.2 20.48,33.92c-2.56,10.24 -10.24,17.92 -20.48,20.48l-96,0l0,149.76l96,0c15.36,1.92 26.88,15.36 24.96,30.72c-1.28,12.8 -11.52,23.68 -24.96,24.96l-96,0l0,157.44l96,0c15.36,1.92 26.88,15.36 24.96,30.72c-1.28,12.8 -11.52,23.68 -24.96,24.96l-96,0l0,142.08c0,40.96 33.28,74.24 74.24,74.24l645.76,0c40.96,0 74.24,-33.28 74.24,-74.24l0,-757.12c0,-40.96 -33.28,-74.24 -74.24,-74.24z"/>
  <path id="svg_2" fill="#dd6572" d="m532.48,340.48c-53.12,0 -97.28,43.52 -97.28,96.64s44.16,96.64 97.28,96.64s96.64,-43.52 96.64,-96.64c0,-53.76 -43.52,-96.64 -96.64,-96.64z"/>
  <path id="svg_3" fill="#dd6572" d="m851.2,136.32c0,-8.96 -8.32,-14.72 -17.92,-14.72l-645.12,0c-8.96,0 -15.36,5.76 -15.36,14.72l0,81.28l44.16,0l7.04,3.2c22.4,5.76 40.96,20.48 52.48,39.68c11.52,19.84 15.36,42.88 9.6,65.28c-7.68,30.72 -31.36,55.04 -62.08,62.72l-7.04,1.92l-44.16,0l0,32l40.32,0l3.2,1.92c46.72,5.12 81.28,48 75.52,95.36c-4.48,39.68 -35.84,71.04 -75.52,75.52l-43.52,0l0,44.8l40.32,0l3.2,-0.64c23.04,2.56 42.88,13.44 57.6,31.36c14.08,17.92 21.12,40.32 18.56,62.72c-4.48,40.32 -35.84,69.76 -75.52,74.24l-3.2,-1.28l-40.96,0l0,87.68c0,8.96 5.76,14.72 15.36,14.72l645.12,0c8.96,0 17.28,-5.76 17.28,-15.36l0,-757.12l0.64,0zm-160.64,588.16l-3.84,0c-10.24,0.64 -18.56,-7.04 -19.2,-17.28l0,-1.92c0,-74.88 -60.8,-135.68 -135.68,-135.68s-135.04,60.8 -135.04,135.68c0.64,10.24 -7.04,18.56 -17.28,19.2l-1.92,0c-10.24,0.64 -18.56,-7.04 -19.2,-17.28l0,-1.92c-0.64,-67.84 39.04,-129.28 101.12,-156.8c-38.4,-24.96 -62.08,-67.84 -62.72,-113.92c0,-74.88 60.8,-135.68 135.68,-135.68s135.68,60.8 135.68,135.68c0,24.32 -6.4,48.64 -19.2,69.76c-10.24,17.92 -24.96,33.28 -42.24,44.16c62.08,26.88 102.4,88.96 101.76,156.8c0,10.24 -7.04,18.56 -17.28,19.2l-0.64,0z"/>
  <defs>
   <style type="text/css"/>
  </defs>
  <g stroke="null" id="svg_17">
   <path stroke="null" id="svg_7" fill="#f8d5d5" d="m299.427629,336.849882l44.629836,27.151567l1.753078,25.675086l-20.564311,12.097598l-44.632802,-27.151567l20.566783,-12.099303l-1.752584,-25.673382zm0,0"/>
   <path stroke="null" id="svg_8" fill="#f8d5d5" d="m705.091251,564.926677c-10.208987,3.399485 -16.335368,15.415277 -13.471908,26.767534l1.769887,7.017118l-2.734427,0.911226c-10.208493,3.400621 -16.504447,14.00924 -13.64247,25.360929c2.860494,11.351689 11.02274,20.479282 21.230738,17.080934l42.913836,-14.287039l-12.230515,-48.505716c-2.862471,-11.354529 -13.626155,-17.740493 -23.835142,-14.344985zm0,0"/>
   <path stroke="null" id="svg_9" fill="#f8d5d5" d="m734.483741,577.423079c-3.779056,-14.985229 -17.711233,-23.557793 -31.063006,-19.114717c-11.779144,3.91986 -19.223548,16.687812 -18.216986,29.927282l-12.803504,-7.788024l-6.058156,12.16861l11.384133,6.923951c-6.529797,6.737615 -9.392763,16.623617 -6.890201,26.543136c4.155775,16.48841 16.246379,25.437054 28.7404,21.279729l48.473161,-16.139599l-13.565841,-53.800369zm-38.245882,56.698225c-7.624358,2.539388 -12.068852,-6.350742 -13.49465,-12.000454c-2.105078,-8.344758 3.431999,-14.310899 9.46692,-16.318549l9.086246,-3.025678l-3.327685,-13.198568c-1.970606,-7.812452 1.892494,-15.733979 8.793077,-18.026813c6.897123,-2.30022 13.845166,2.021285 15.814784,9.835441l10.227279,40.559194l-36.565972,12.175427zm0,0"/>
   <path stroke="null" id="svg_10" fill="#f8d5d5" d="m649.581552,582.41948l6.063595,-12.166338l11.156717,6.788176l-6.057168,12.165202l-11.163144,-6.78704zm-284.483191,-173.102173l6.058651,-12.165202l11.157212,6.785335l-6.058651,12.167474l-11.157212,-6.787608zm0,0"/>
   <path stroke="null" id="svg_11" fill="#f8d5d5" d="m381.80056,419.605521l6.056179,-12.166906l262.228588,159.43379l-6.057662,12.162929l-262.227105,-159.429813zm0,0"/>
   <path stroke="null" id="svg_12" fill="#f8d5d5" d="m247.950109,338.045723l6.059145,-12.16577l27.892041,16.970723l-6.058651,12.164634l-27.892535,-16.969587zm0,0"/>
   <path stroke="null" id="svg_13" fill="#f8d5d5" d="m359.515305,405.942251l6.060134,-12.166906l-13.850605,-8.425428l-1.750112,-25.675654l-58.673249,-35.69459l-6.056179,12.16577l8.27101,5.032192l1.185034,17.405885l-13.941076,8.200462l-8.270021,-5.03276l-6.059145,12.164634l58.668305,35.695158l20.566289,-12.098166l13.849616,8.429404zm-51.858194,-39.477539l-1.185034,-17.405885l9.356178,5.693455l1.185034,17.404748l-13.937616,8.203302l-9.358156,-5.695728l13.939593,-8.199894zm8.376808,21.775677l13.93811,-8.198757l-1.186022,-17.404748l9.357167,5.692319l1.186022,17.402476l-13.942065,8.203302l-9.353212,-5.694591zm0,0"/>
   <path stroke="null" id="svg_14" fill="#f8d5d5" d="m428.105362,409.950166l6.05964,-12.166338l63.113788,38.399294l-6.061123,12.166338l-63.112305,-38.399294zm78.891988,48.008633l6.060134,-12.165202l15.779189,9.600249l-6.059145,12.166338l-15.780177,-9.601386zm-102.822051,-103.164478l6.05964,-12.163497l106.507669,64.795861l-6.058651,12.16861l-106.508658,-64.800974zm102.569917,62.407019l6.062111,-12.165202l31.555905,19.201635l-6.060628,12.164065l-31.557388,-19.200499zm-4.026741,162.86168l6.05964,-12.165202l63.112799,38.399294l-6.058156,12.164634l-165.936334,-141.563203l102.822051,103.164478zm78.895943,47.997271l6.060134,-12.165202l15.778694,9.598545l-6.062111,12.16577l-15.776717,-9.599113zm-133.860339,-40.838129l6.059145,-12.166906l106.507174,64.801542l-6.058651,12.163497l-106.507669,-64.798133zm-31.29586,21.554688l6.059145,-12.163497l31.5564,19.198795l-6.059145,12.164065l-31.5564,-19.199363zm0,0"/>
   <path stroke="null" id="svg_15" fill="#f8d5d5" d="m532.471862,386.025383c-22.515637,0 -43.714735,11.22898 -57.895586,29.455195c-14.181346,-18.226215 -35.381433,-29.455195 -57.89707,-29.455195c-39.912443,0 -70.761382,33.68694 -70.761382,77.29908c0,53.377705 43.71424,96.178036 109.944118,162.249841l18.714334,18.225647l18.712851,-18.225647c66.230866,-66.071804 109.944118,-108.872135 109.944118,-162.249841c-0.000494,-43.61214 -30.84795,-77.29908 -70.761382,-77.29908zm0,0"/>
   <path stroke="null" id="svg_16" fill="#f8d5d5" d="m647.862091,386.025383c-22.515143,0 -43.714735,11.22898 -57.895092,29.455195c-14.18184,-18.226215 -35.381433,-29.455195 -57.89707,-29.455195c-39.912443,0 -70.761877,33.68694 -70.761877,77.29908c0,53.377705 43.714735,96.178036 109.944612,162.249841l18.714334,18.225647l18.713345,-18.225647c66.230372,-66.071804 109.944118,-108.872135 109.944118,-162.249841c-0.000494,-43.61214 -30.848939,-77.29908 -70.762371,-77.29908zm0,0"/>
  </g>
 </g>
</svg>