<svg width="1024" height="1024" xmlns="http://www.w3.org/2000/svg" class="icon">
 <defs>
  <style type="text/css"/>
 </defs>
 <g>
  <title>background</title>
  <rect fill="none" id="canvas_background" height="402" width="582" y="-1" x="-1"/>
 </g>
 <g>
  <title>Layer 1</title>
  <path id="svg_1" fill="#dd6572" d="m833.92,62.08l-645.76,0c-40.96,0 -74.24,33.28 -74.24,74.24l0,142.08l96,0c15.36,3.84 24.32,19.2 20.48,33.92c-2.56,10.24 -10.24,17.92 -20.48,20.48l-96,0l0,149.76l96,0c15.36,1.92 26.88,15.36 24.96,30.72c-1.28,12.8 -11.52,23.68 -24.96,24.96l-96,0l0,157.44l96,0c15.36,1.92 26.88,15.36 24.96,30.72c-1.28,12.8 -11.52,23.68 -24.96,24.96l-96,0l0,142.08c0,40.96 33.28,74.24 74.24,74.24l645.76,0c40.96,0 74.24,-33.28 74.24,-74.24l0,-757.12c0,-40.96 -33.28,-74.24 -74.24,-74.24z"/>
  <path id="svg_2" fill="#dd6572" d="m532.48,340.48c-53.12,0 -97.28,43.52 -97.28,96.64s44.16,96.64 97.28,96.64s96.64,-43.52 96.64,-96.64c0,-53.76 -43.52,-96.64 -96.64,-96.64z"/>
  <path id="svg_3" fill="#dd6572" d="m851.2,136.32c0,-8.96 -8.32,-14.72 -17.92,-14.72l-645.12,0c-8.96,0 -15.36,5.76 -15.36,14.72l0,81.28l44.16,0l7.04,3.2c22.4,5.76 40.96,20.48 52.48,39.68c11.52,19.84 15.36,42.88 9.6,65.28c-7.68,30.72 -31.36,55.04 -62.08,62.72l-7.04,1.92l-44.16,0l0,32l40.32,0l3.2,1.92c46.72,5.12 81.28,48 75.52,95.36c-4.48,39.68 -35.84,71.04 -75.52,75.52l-43.52,0l0,44.8l40.32,0l3.2,-0.64c23.04,2.56 42.88,13.44 57.6,31.36c14.08,17.92 21.12,40.32 18.56,62.72c-4.48,40.32 -35.84,69.76 -75.52,74.24l-3.2,-1.28l-40.96,0l0,87.68c0,8.96 5.76,14.72 15.36,14.72l645.12,0c8.96,0 17.28,-5.76 17.28,-15.36l0,-757.12l0.64,0zm-160.64,588.16l-3.84,0c-10.24,0.64 -18.56,-7.04 -19.2,-17.28l0,-1.92c0,-74.88 -60.8,-135.68 -135.68,-135.68s-135.04,60.8 -135.04,135.68c0.64,10.24 -7.04,18.56 -17.28,19.2l-1.92,0c-10.24,0.64 -18.56,-7.04 -19.2,-17.28l0,-1.92c-0.64,-67.84 39.04,-129.28 101.12,-156.8c-38.4,-24.96 -62.08,-67.84 -62.72,-113.92c0,-74.88 60.8,-135.68 135.68,-135.68s135.68,60.8 135.68,135.68c0,24.32 -6.4,48.64 -19.2,69.76c-10.24,17.92 -24.96,33.28 -42.24,44.16c62.08,26.88 102.4,88.96 101.76,156.8c0,10.24 -7.04,18.56 -17.28,19.2l-0.64,0z"/>
  <path id="svg_6" d="m589.185621,453.367523c34.63297,-106.31761 170.32608,0 0,136.69408c-170.32608,-136.69408 -34.63297,-243.01169 0,-136.69408z" stroke-width="1.5" stroke="#000" fill="#fff"/>
  <path id="svg_4" d="m531.185327,447.367492c34.63297,-106.31761 170.32608,0 0,136.69408c-170.32608,-136.69408 -34.63297,-243.01169 0,-136.69408z" stroke-width="1.5" stroke="#000" fill="#fff"/>
  <path id="svg_7" d="m-517.005244,442.002239" opacity="0.5" fill-opacity="null" stroke-opacity="null" stroke-width="1.5" stroke="#000" fill="#fff"/>
 </g>
</svg>