<?xml version="1.0" standalone="no"?><!DOCTYPE svg PUBLIC "-//W3C//DTD SVG 1.1//EN" "http://www.w3.org/Graphics/SVG/1.1/DTD/svg11.dtd"><svg t="1570951424509" class="icon" viewBox="0 0 1024 1024" version="1.1" xmlns="http://www.w3.org/2000/svg" p-id="3093" xmlns:xlink="http://www.w3.org/1999/xlink" width="48" height="48"><defs><style type="text/css"></style></defs><path d="M717.263967 389.783471l-88.109734 0 0-32.804127c0-55.305607-15.180747-147.84421-117.477598-147.84421-106.210997 0-117.477598 103.294574-117.477598 147.84421l0 32.804127-88.109734 0 0-32.804127c0-144.889925 80.759325-238.391459 205.587332-238.391459 124.8321 0 205.587332 93.502557 205.587332 238.391459L717.263967 389.783471 717.263967 389.783471zM570.418504 630.582769c0-33.286104-26.448372-60.153008-58.740846-60.153008-32.292474 0-58.736752 26.866904-58.736752 60.153008 0 22.534226 11.774161 41.662889 29.398564 51.873438l0 68.559469c0 16.626679 13.193487 30.365588 29.367865 30.365588 16.178471 0 29.372981-13.738909 29.372981-30.365588l0-68.559469C558.668902 672.245657 570.418504 653.116995 570.418504 630.582769L570.418504 630.582769zM805.373701 510.185678l0 301.045427c0 49.912783-39.668465 90.548272-88.109734 90.548272l-411.174664 0c-48.4075 0-88.109734-40.635489-88.109734-90.548272L217.97957 510.185678c0-49.886177 39.672558-90.551342 88.109734-90.551342l411.174664 0C765.706259 419.633313 805.373701 460.298478 805.373701 510.185678L805.373701 510.185678z" p-id="3094" fill="#515151"></path></svg>