<?xml version="1.0" standalone="no"?><!DOCTYPE svg PUBLIC "-//W3C//DTD SVG 1.1//EN" "http://www.w3.org/Graphics/SVG/1.1/DTD/svg11.dtd"><svg t="1570949275335" class="icon" viewBox="0 0 1024 1024" version="1.1" xmlns="http://www.w3.org/2000/svg" p-id="2304" xmlns:xlink="http://www.w3.org/1999/xlink" width="48" height="48"><defs><style type="text/css"></style></defs><path d="M942.6 840.4c-0.4-7.7-1.6-15.2-3.3-22.2-37.8-149-150.1-263-291-307.2 67.9-43.3 113.1-119 113.1-205.3 0-134.3-109.2-243.5-243.5-243.5S274.4 171.5 274.4 305.7c0 86.4 45.4 162.2 113.4 205.5C240.6 557.7 124.2 680.7 92 837.7c-6 29.2 1.4 59.2 20.3 82.3 18.9 23.2 46.9 36.5 76.6 36.5l640.4 3.1h0.6c30.8 0 60.6-12.8 81.8-35.1 21.3-22.5 32.6-53.1 30.9-84.1z" p-id="2305" fill="#515151"></path></svg>