<?xml version="1.0" standalone="no"?><!DOCTYPE svg PUBLIC "-//W3C//DTD SVG 1.1//EN" "http://www.w3.org/Graphics/SVG/1.1/DTD/svg11.dtd"><svg t="1570952064215" class="icon" viewBox="0 0 1821 1024" version="1.1" xmlns="http://www.w3.org/2000/svg" p-id="3876" xmlns:xlink="http://www.w3.org/1999/xlink" width="85.359375" height="48"><defs><style type="text/css"></style></defs><path d="M1249.466667 230c-1.866667-0.133333-193.066667-21.066667-326-122.933333-8-6.266667-19.2-6.266667-27.2 0-132.133333 101.333333-324 122.8-325.866667 122.933333-12 1.2-20.933333 11.733333-20.933333 24.4 0 5.6 0.533333 137.866667 43.2 286.4 25.333333 88 60.133333 163.333333 103.866666 223.866667 55.333333 76.8 131.866667 129.733333 213.466667 157.333333 81.6-27.6 158-80.533333 213.466667-157.333333 43.6-60.533333 78.666667-135.733333 103.866666-223.866667 42.666667-148.533333 43.2-280.8 43.2-286.4-0.133333-12.666667-9.2-23.066667-21.066666-24.4zM1084.933333 426.4L898.533333 631.866667c-4.666667 6-11.466667 9.866667-19.066666 10.666666-0.8 0.133333-1.733333 0.133333-2.533334 0.133334-6.8 0-13.466667-2.4-18.4-6.533334l-119.733333-104.533333c-11.6-9.866667-12.933333-27.333333-3.066667-38.933333 5.2-6.133333 12.933333-9.733333 21.066667-9.6 6.533333 0 12.933333 2.4 17.866667 6.533333l97.6 85.466667 168.666666-182.266667c9.2-12.133333 26.533333-14.4 38.8-5.066667 5.866667 4.533333 9.6 10.933333 10.533334 18.266667 1.066667 7.2-0.933333 14.533333-5.333334 20.4z m0 0" p-id="3877" fill="#515151"></path></svg>