<?xml version="1.0" standalone="no"?><!DOCTYPE svg PUBLIC "-//W3C//DTD SVG 1.1//EN" "http://www.w3.org/Graphics/SVG/1.1/DTD/svg11.dtd"><svg t="1571149180500" class="icon" viewBox="0 0 1024 1024" version="1.1" xmlns="http://www.w3.org/2000/svg" p-id="1258" xmlns:xlink="http://www.w3.org/1999/xlink" width="128" height="128"><defs><style type="text/css"></style></defs><path d="M112.839 255.227l90.274 47.794 3.546 45.195-41.596 21.295-90.28-47.794 41.601-21.298-3.545-45.192z m0 0" fill="#f8d5d5" p-id="1259"></path><path d="M933.386 656.703c-20.65 5.984-33.042 27.135-27.25 47.118l3.58 12.352-5.531 1.604c-20.649 5.986-33.384 24.66-27.595 44.642 5.786 19.982 22.296 36.049 42.944 30.067l86.803-25.149-24.739-85.383c-5.79-19.987-27.562-31.228-48.212-25.251z m0 0" fill="#f8d5d5" p-id="1260"></path><path d="M992.839 678.7c-7.644-26.378-35.825-41.468-62.832-33.647-23.826 6.9-38.884 29.375-36.848 52.68l-25.898-13.709-12.254 21.42 23.027 12.188c-13.208 11.86-18.999 29.262-13.937 46.723 8.406 29.024 32.862 44.776 58.134 37.458l98.048-28.41-27.44-94.703z m-77.361 99.804c-15.422 4.47-24.412-11.179-27.296-21.124-4.258-14.689 6.942-25.191 19.149-28.725l18.379-5.326-6.731-23.233c-3.986-13.752 3.828-27.696 17.786-31.732 13.951-4.049 28.005 3.558 31.989 17.313l20.687 71.395-73.963 21.432z m0 0" fill="#f8d5d5" p-id="1261"></path><path d="M821.105 687.495l12.265-21.416 22.567 11.949-12.252 21.414-22.58-11.947zM245.673 382.789l12.255-21.414 22.568 11.944-12.255 21.418-22.568-11.948z m0 0" fill="#f8d5d5" p-id="1262"></path><path d="M279.457 400.899l12.25-21.417 530.417 280.646-12.253 21.41-530.414-280.639z m0 0" fill="#f8d5d5" p-id="1263"></path><path d="M8.714 257.332l12.256-21.415 56.418 29.873-12.255 21.413-56.419-29.871z m0 0" fill="#f8d5d5" p-id="1264"></path><path d="M234.38 376.848l12.258-21.417-28.016-14.831-3.54-45.196-118.68-62.832-12.25 21.415 16.73 8.858 2.397 30.639-28.199 14.435-16.728-8.859-12.256 21.413 118.67 62.833 41.6-21.296 28.014 14.838z m-104.895-69.491l-2.397-30.639 18.925 10.022 2.397 30.637-28.192 14.44-18.929-10.026 28.196-14.434z m16.944 38.331l28.193-14.432-2.399-30.637 18.927 10.02 2.399 30.633-28.201 14.44-18.919-10.024z m0 0" fill="#f8d5d5" p-id="1265"></path><path d="M373.119 383.903l12.257-21.416 127.662 67.593-12.26 21.416-127.659-67.593z m159.577 84.508l12.258-21.414 31.917 16.899-12.256 21.416-31.919-16.901zM324.715 286.814l12.257-21.411 215.436 114.058-12.255 21.42-215.438-114.067z m-0.51-71.744l12.262-21.414 63.829 33.8-12.259 21.412-63.832-33.798z m-8.145 286.68l12.257-21.414 127.66 67.593-12.254 21.413L316.06 501.75z m159.585 84.488l12.258-21.414 31.916 16.896-12.262 21.415-31.912-16.897z m-270.763-71.886l12.256-21.417 215.435 114.068-12.255 21.411-215.436-114.062z m-63.303 37.942l12.256-21.411 63.83 33.795-12.256 21.412-63.83-33.796z m0 0" fill="#f8d5d5" p-id="1266"></path><path d="M584.224 341.789c-45.543 0-88.423 19.766-117.107 51.849-28.685-32.083-71.567-51.849-117.11-51.849-80.732 0-143.131 59.298-143.131 136.067 0 93.959 88.422 169.299 222.387 285.603l37.854 32.082 37.851-32.082c133.967-116.304 222.387-191.644 222.387-285.603-0.001-76.769-62.397-136.067-143.131-136.067z m0 0" fill="#f8d5d5" p-id="1267"></path><path d="M817.627 341.789c-45.542 0-88.423 19.766-117.106 51.849-28.686-32.083-71.567-51.849-117.11-51.849-80.732 0-143.132 59.298-143.132 136.067 0 93.959 88.423 169.299 222.388 285.603l37.854 32.082 37.852-32.082C872.339 647.155 960.76 571.815 960.76 477.856c-0.001-76.769-62.399-136.067-143.133-136.067z m0 0" fill="#f8d5d5" p-id="1268"></path></svg>