<?xml version="1.0" standalone="no"?><!DOCTYPE svg PUBLIC "-//W3C//DTD SVG 1.1//EN" "http://www.w3.org/Graphics/SVG/1.1/DTD/svg11.dtd"><svg t="1571143581075" class="icon" viewBox="0 0 1024 1024" version="1.1" xmlns="http://www.w3.org/2000/svg" p-id="3157" width="128" height="128" xmlns:xlink="http://www.w3.org/1999/xlink"><defs><style type="text/css"></style></defs><path d="M833.92 62.08H188.16c-40.96 0-74.24 33.28-74.24 74.24v142.08h96c15.36 3.84 24.32 19.2 20.48 33.92-2.56 10.24-10.24 17.92-20.48 20.48h-96v149.76h96c15.36 1.92 26.88 15.36 24.96 30.72-1.28 12.8-11.52 23.68-24.96 24.96h-96v157.44h96c15.36 1.92 26.88 15.36 24.96 30.72-1.28 12.8-11.52 23.68-24.96 24.96h-96v142.08c0 40.96 33.28 74.24 74.24 74.24h645.76c40.96 0 74.24-33.28 74.24-74.24V136.32c0-40.96-33.28-74.24-74.24-74.24z" fill="#dd6572" p-id="3158"></path><path d="M532.48 340.48C479.36 340.48 435.2 384 435.2 437.12s44.16 96.64 97.28 96.64 96.64-43.52 96.64-96.64c0-53.76-43.52-96.64-96.64-96.64z" fill="#dd6572" p-id="3159"></path><path d="M851.2 136.32c0-8.96-8.32-14.72-17.92-14.72H188.16c-8.96 0-15.36 5.76-15.36 14.72V217.6h44.16l7.04 3.2c22.4 5.76 40.96 20.48 52.48 39.68 11.52 19.84 15.36 42.88 9.6 65.28-7.68 30.72-31.36 55.04-62.08 62.72l-7.04 1.92H172.8v32h40.32l3.2 1.92c46.72 5.12 81.28 48 75.52 95.36-4.48 39.68-35.84 71.04-75.52 75.52H172.8v44.8h40.32l3.2-0.64c23.04 2.56 42.88 13.44 57.6 31.36 14.08 17.92 21.12 40.32 18.56 62.72-4.48 40.32-35.84 69.76-75.52 74.24l-3.2-1.28H172.8v87.68c0 8.96 5.76 14.72 15.36 14.72h645.12c8.96 0 17.28-5.76 17.28-15.36V136.32z m-160 588.16h-3.84c-10.24 0.64-18.56-7.04-19.2-17.28v-1.92c0-74.88-60.8-135.68-135.68-135.68S396.8 630.4 396.8 705.28c0.64 10.24-7.04 18.56-17.28 19.2H377.6c-10.24 0.64-18.56-7.04-19.2-17.28v-1.92c-0.64-67.84 39.04-129.28 101.12-156.8-38.4-24.96-62.08-67.84-62.72-113.92 0-74.88 60.8-135.68 135.68-135.68s135.68 60.8 135.68 135.68c0 24.32-6.4 48.64-19.2 69.76-10.24 17.92-24.96 33.28-42.24 44.16 62.08 26.88 102.4 88.96 101.76 156.8 0 10.24-7.04 18.56-17.28 19.2z" fill="#dd6572" p-id="3160"></path></svg>